<?xml version="1.0" encoding="UTF-8"?>
<svg version="1.1" xmlns="http://www.w3.org/2000/svg" width="16" height="16">
<path d="M0 0 C3.63 0 7.26 0 11 0 C11 0.99 11 1.98 11 3 C12.65 3 14.3 3 16 3 C16 7.29 16 11.58 16 16 C12.37 16 8.74 16 5 16 C5 15.01 5 14.02 5 13 C3.35 13 1.7 13 0 13 C0 8.71 0 4.42 0 0 Z " fill="#2B9F88" transform="translate(0,0)"/>
<path d="M0 0 C1.65 0 3.3 0 5 0 C5 4.29 5 8.58 5 13 C1.37 13 -2.26 13 -6 13 C-6 11.68 -6 10.36 -6 9 C-4.35 9 -2.7 9 -1 9 C-1.020625 7.700625 -1.04125 6.40125 -1.0625 5.0625 C-1.08399454 3.70834367 -1.07148199 2.35243917 -1 1 C-0.67 0.67 -0.34 0.34 0 0 Z " fill="#217968" transform="translate(11,3)"/>
</svg>
